<svg id="Layer_1" xmlns="http://www.w3.org/2000/svg" width="531" height="208.3" viewBox="0 0 531 208.3"><style>.st0{fill:#1cbdef}.st1{fill:#fff}</style><path class="st0" d="M171.1 115.6l18.8 14.4-82.9 63.4v-40.3l97.9-74.8L102.4 0 0 78.3V130l102.4 78.3L204.9 130l-26.3-20.1-7.5 5.7zM107 14.9l82.9 63.4-26.3 20.1L107 55.2V14.9zm-9.1 0v40.3L41.3 98.4 15 78.3l82.9-63.4zM9.1 85.3l24.7 18.9-24.7 18.9V85.3zm47.3 24.6l-7.5 5.7 49 37.5v40.3L15 130l87.5-66.8 53.6 41-53.6 41-46.1-35.3z"/><path class="st1" d="M335.1 138l-5-12.3H303l-5 12.3h-10.7l29.3-66.1 29.3 66.1h-10.8zm-28.6-21.1h20l-10-24.4-10 24.4zm47.7 21.1V72.1h22.2c10.4 0 18.8 8.4 18.8 18.8 0 4.4-1.4 7.9-4.5 11.1l-.9 1 1.2.6c5.6 2.9 9.1 8.8 9.1 15.5 0 10.4-8.4 18.8-18.8 18.8h-27.1zm9.4-9.4h17.6c5.2 0 9.4-4.3 9.4-9.7 0-5.3-4.1-9.5-9.4-9.5h-17.6v19.2zm0-27.9h12.8c5.3 0 9.4-4.2 9.4-9.5s-4.2-9.7-9.4-9.7h-12.8v19.2zm79.7 37.2c-18.6 0-33.8-15.2-33.8-33.8 0-18.6 15.2-33.8 33.8-33.8s33.8 15.2 33.8 33.8c0 18.7-15.1 33.8-33.8 33.8m0-58.1c-13.5 0-24.4 10.9-24.4 24.4 0 13.5 10.9 24.4 24.4 24.4s24.4-10.9 24.4-24.4c0-13.5-10.9-24.4-24.4-24.4m-173.9 47.9c-1.9.5-4 .7-6.2.7-13.7 0-24.4-10.6-24.4-24.2S249.6 80 263.3 80c2.2 0 4.2.2 6.1.7l8.8-6.7c-4.8-2.4-9.5-3.6-14.7-3.6-9.2 0-17.8 3.5-24.2 9.8-6.5 6.3-10 14.8-10 23.9 0 9.1 3.5 17.6 10 24 6.4 6.4 15.1 9.9 24.3 9.9 5.2 0 10-1.1 14.7-3.6l-8.9-6.7M504.3 138l9.4-7.2V81.5H531v-9.4h-44.2v9.4h17.5z"/></svg>